REM DIRINDEX 1\4,1\2\5,1\2\6,1\2\7,1\3\8,1\3\9,1\3\10,1\3\11
REM DIRNAME cjc108,folder01,folder02,folder03,folder04,folder05,folder06,folder07,folder08,folder09,folder10
TITLE ""
FILE "t_j_41.mp3" MP3
  TRACK 01 AUDIO
    TITLE "8:cjc108_2792"
    INDEX 01 00:00:00
  TRACK 02 AUDIO
    TITLE "0:"
    INDEX 01 00:03:04
  TRACK 03 AUDIO
    TITLE "9:cjc108_2793"
    INDEX 01 00:04:27
  TRACK 04 AUDIO
    TITLE "0:"
    INDEX 01 00:05:44
  TRACK 05 AUDIO
    TITLE "10:cjc108_2794"
    INDEX 01 00:05:56
  TRACK 06 AUDIO
    TITLE "0:"
    INDEX 01 00:07:00
  TRACK 07 AUDIO
    TITLE "9:cjc108_2795"
    INDEX 01 00:07:54
  TRACK 08 AUDIO
    TITLE "0:"
    INDEX 01 00:08:52
  TRACK 09 AUDIO
    TITLE "10:cjc108_2796"
    INDEX 01 00:08:60
  TRACK 10 AUDIO
    TITLE "0:"
    INDEX 01 00:10:00
  TRACK 11 AUDIO
    TITLE "11:cjc108_2797"
    INDEX 01 00:10:55
  TRACK 12 AUDIO
    TITLE "0:"
    INDEX 01 00:15:68
  TRACK 13 AUDIO
    TITLE "9:cjc108_2798"
    INDEX 01 00:17:55
  TRACK 14 AUDIO
    TITLE "0:"
    INDEX 01 00:18:62
  TRACK 15 AUDIO
    TITLE "10:cjc108_2799"
    INDEX 01 00:19:03
  TRACK 16 AUDIO
    TITLE "0:"
    INDEX 01 00:21:11
  TRACK 17 AUDIO
    TITLE "9:cjc108_2800"
    INDEX 01 00:21:62
  TRACK 18 AUDIO
    TITLE "0:"
    INDEX 01 00:23:22
  TRACK 19 AUDIO
    TITLE "10:cjc108_2801"
    INDEX 01 00:23:34
  TRACK 20 AUDIO
    TITLE "0:"
    INDEX 01 00:24:65
  TRACK 21 AUDIO
    TITLE "11:cjc108_2802"
    INDEX 01 00:25:46
  TRACK 22 AUDIO
    TITLE "0:"
    INDEX 01 00:32:35
  TRACK 23 AUDIO
    TITLE "9:cjc108_2803"
    INDEX 01 00:34:16
  TRACK 24 AUDIO
    TITLE "0:"
    INDEX 01 00:35:19
  TRACK 25 AUDIO
    TITLE "10:cjc108_2804"
    INDEX 01 00:35:37
  TRACK 26 AUDIO
    TITLE "0:"
    INDEX 01 00:36:54
  TRACK 27 AUDIO
    TITLE "9:cjc108_2805"
    INDEX 01 00:37:32
  TRACK 28 AUDIO
    TITLE "0:"
    INDEX 01 00:38:55
  TRACK 29 AUDIO
    TITLE "10:cjc108_2806"
    INDEX 01 00:38:63
  TRACK 30 AUDIO
    TITLE "0:"
    INDEX 01 00:39:74
  TRACK 31 AUDIO
    TITLE "9:cjc108_2807"
    INDEX 01 00:40:56
  TRACK 32 AUDIO
    TITLE "0:"
    INDEX 01 00:41:69
  TRACK 33 AUDIO
    TITLE "10:cjc108_2808"
    INDEX 01 00:42:10
  TRACK 34 AUDIO
    TITLE "0:"
    INDEX 01 00:44:44
  TRACK 35 AUDIO
    TITLE "11:cjc108_2809"
    INDEX 01 00:45:20
  TRACK 36 AUDIO
    TITLE "0:"
    INDEX 01 00:50:35
  TRACK 37 AUDIO
    TITLE "9:cjc108_2810"
    INDEX 01 00:52:18
  TRACK 38 AUDIO
    TITLE "0:"
    INDEX 01 00:53:23
  TRACK 39 AUDIO
    TITLE "10:cjc108_2811"
    INDEX 01 00:53:39
  TRACK 40 AUDIO
    TITLE "0:"
    INDEX 01 00:54:52
  TRACK 41 AUDIO
    TITLE "9:cjc108_2812"
    INDEX 01 00:55:30
  TRACK 42 AUDIO
    TITLE "0:"
    INDEX 01 00:56:33
  TRACK 43 AUDIO
    TITLE "10:cjc108_2813"
    INDEX 01 00:56:41
  TRACK 44 AUDIO
    TITLE "0:"
    INDEX 01 00:57:74
  TRACK 45 AUDIO
    TITLE "11:cjc108_2814"
    INDEX 01 00:58:42
  TRACK 46 AUDIO
    TITLE "0:"
    INDEX 01 01:03:71
  TRACK 47 AUDIO
    TITLE "9:cjc108_2815"
    INDEX 01 01:05:52
  TRACK 48 AUDIO
    TITLE "0:"
    INDEX 01 01:06:61
  TRACK 49 AUDIO
    TITLE "10:cjc108_2816"
    INDEX 01 01:07:02
  TRACK 50 AUDIO
    TITLE "0:"
    INDEX 01 01:08:01
  TRACK 51 AUDIO
    TITLE "9:cjc108_2817"
    INDEX 01 01:08:56
  TRACK 52 AUDIO
    TITLE "0:"
    INDEX 01 01:09:65
  TRACK 53 AUDIO
    TITLE "10:cjc108_2818"
    INDEX 01 01:09:67
  TRACK 54 AUDIO
    TITLE "0:"
    INDEX 01 01:12:01
  TRACK 55 AUDIO
    TITLE "9:cjc108_2819"
    INDEX 01 01:12:56
  TRACK 56 AUDIO
    TITLE "0:"
    INDEX 01 01:13:61
  TRACK 57 AUDIO
    TITLE "10:cjc108_2820"
    INDEX 01 01:13:63
  TRACK 58 AUDIO
    TITLE "0:"
    INDEX 01 01:15:07
  TRACK 59 AUDIO
    TITLE "9:cjc108_2821"
    INDEX 01 01:15:60
  TRACK 60 AUDIO
    TITLE "0:"
    INDEX 01 01:16:63
  TRACK 61 AUDIO
    TITLE "10:cjc108_2822"
    INDEX 01 01:16:67
  TRACK 62 AUDIO
    TITLE "0:"
    INDEX 01 01:18:54
  TRACK 63 AUDIO
    TITLE "9:cjc108_2823"
    INDEX 01 01:19:34
  TRACK 64 AUDIO
    TITLE "0:"
    INDEX 01 01:20:40
  TRACK 65 AUDIO
    TITLE "10:cjc108_2824"
    INDEX 01 01:20:57
  TRACK 66 AUDIO
    TITLE "0:"
    INDEX 01 01:23:36
  TRACK 67 AUDIO
    TITLE "11:cjc108_2825"
    INDEX 01 01:24:16
  TRACK 68 AUDIO
    TITLE "0:"
    INDEX 01 01:31:43
  TRACK 69 AUDIO
    TITLE "9:cjc108_2826"
    INDEX 01 01:33:33
  TRACK 70 AUDIO
    TITLE "0:"
    INDEX 01 01:34:54
  TRACK 71 AUDIO
    TITLE "10:cjc108_2827"
    INDEX 01 01:34:67
  TRACK 72 AUDIO
    TITLE "0:"
    INDEX 01 01:37:05
  TRACK 73 AUDIO
    TITLE "11:cjc108_2828"
    INDEX 01 01:37:60
  TRACK 74 AUDIO
    TITLE "0:"
    INDEX 01 01:41:46
